<?xml version="1.0" encoding="UTF-8"?> <svg xmlns="http://www.w3.org/2000/svg" width="116" height="65" viewBox="0 0 116 65" fill="none"><path d="M83.1326 57.68C88.1684 57.6721 93.0888 56.1716 97.2721 53.3681C101.455 50.5646 104.714 46.584 106.635 41.9293C108.557 37.2745 109.056 32.1546 108.068 27.2166C107.081 22.2785 104.652 17.7439 101.089 14.1859C97.5249 10.6278 92.9865 8.20603 88.0469 7.2265C83.1073 6.24697 77.9882 6.75371 73.3365 8.68265C68.6848 10.6116 64.7092 13.8761 61.9123 18.0638C59.1154 22.2514 57.6226 27.1742 57.6226 32.21C57.6226 37.2475 56.1288 42.1719 53.3301 46.3604C50.5315 50.5489 46.5536 53.8134 41.8996 55.7412C37.2455 57.669 32.1244 58.1734 27.1837 57.1906C22.243 56.2078 17.7047 53.782 14.1426 50.22C10.5806 46.658 8.1548 42.1197 7.17203 37.179C6.18927 32.2383 6.69364 27.1171 8.6214 22.463C10.5492 17.809 13.8137 13.8312 18.0023 11.0325C22.1908 8.23379 27.1151 6.73999 32.1526 6.73999" stroke="white" stroke-width="2" stroke-miterlimit="10"></path><path d="M87.6227 51.45C91.2435 50.6146 94.5551 48.7747 97.1771 46.1417C99.7992 43.5087 101.625 40.1895 102.446 36.5653C103.266 32.9411 103.047 29.159 101.814 25.6535C100.582 22.1481 98.3849 19.0615 95.4768 16.7485C92.5686 14.4354 89.0669 12.9897 85.374 12.5774C81.6811 12.1652 77.9467 12.8031 74.6001 14.4178C71.2534 16.0326 68.4302 18.5588 66.4548 21.7061C64.4793 24.8533 63.4319 28.4941 63.4327 32.2099C63.4318 38.0764 61.7764 43.8238 58.6566 48.7919C55.5368 53.7601 51.079 57.7477 45.7953 60.2968C40.5115 62.8458 34.616 63.8531 28.7856 63.2029C22.9552 62.5526 17.4264 60.2712 12.8341 56.6207C8.24181 52.9701 4.77216 48.0984 2.82357 42.565C0.874974 37.0315 0.526453 31.0607 1.81804 25.3381C3.10963 19.6156 5.98896 14.3733 10.1254 10.2133C14.2618 6.05322 19.4876 3.1441 25.2027 1.81995" stroke="white" stroke-width="2" stroke-miterlimit="10"></path><path d="M27.7529 13.0001C24.1325 13.8353 20.8212 15.6749 18.1993 18.3074C15.5774 20.9399 13.7513 24.2586 12.9306 27.8823C12.11 31.506 12.3282 35.2876 13.5601 38.7929C14.792 42.2982 16.9877 45.3849 19.8949 47.6984C22.8021 50.0119 26.303 51.4585 29.9954 51.8719C33.6878 52.2853 37.4219 51.6488 40.7688 50.0354C44.1157 48.4221 46.9396 45.8974 48.9162 42.7513C50.8928 39.6053 51.9418 35.9655 51.9429 32.2501C51.9424 26.3837 53.5963 20.636 56.7148 15.6672C59.8332 10.6983 64.2898 6.70963 69.5728 4.15917C74.8558 1.60872 80.751 0.599876 86.5814 1.2485C92.4118 1.89712 97.9411 4.17691 102.534 7.82607C107.128 11.4752 110.599 16.3458 112.549 21.8786C114.499 27.4113 114.849 33.3819 113.56 39.1048C112.27 44.8276 109.392 50.0707 105.257 54.232C101.122 58.3933 95.8974 61.3041 90.1829 62.6301" stroke="white" stroke-width="2" stroke-miterlimit="10"></path><path d="M54.4929 19.88C52.3193 15.9511 49.1456 12.6667 45.2937 10.3595C41.4417 8.05238 37.0482 6.80453 32.5586 6.74243C28.0689 6.68033 23.6427 7.80619 19.7283 10.0059C15.814 12.2056 12.5508 15.4011 10.2693 19.2683C7.98783 23.1356 6.76922 27.5372 6.73698 32.0272C6.70475 36.5171 7.86002 40.9358 10.0857 44.8354C12.3115 48.735 15.5285 51.9769 19.4108 54.2326C23.2932 56.4883 27.7028 57.6776 32.1929 57.68" stroke="white" stroke-width="2" stroke-miterlimit="10"></path><path d="M83.1328 6.73999C87.624 6.73962 92.0355 7.92683 95.9199 10.1812C99.8043 12.4357 103.023 15.6771 105.251 19.577C107.479 23.4768 108.636 27.8963 108.604 32.3874C108.573 36.8785 107.355 41.2815 105.073 45.1499C102.791 49.0184 99.5272 52.2147 95.6117 54.4147C91.6963 56.6148 87.2687 57.7404 82.778 57.6775C78.2872 57.6145 73.8929 56.3653 70.0406 54.0563C66.1884 51.7474 63.0152 48.4608 60.8428 44.53" stroke="white" stroke-width="2" stroke-miterlimit="10"></path><path d="M57.1031 13.45C54.088 9.44716 50.1527 6.22979 45.6306 4.07028C41.1084 1.91078 36.1325 0.872723 31.1241 1.04398C26.1157 1.21523 21.2224 2.59075 16.8583 5.05411C12.4942 7.51746 8.78794 10.9961 6.05329 15.1955C3.31864 19.3949 1.63613 24.1914 1.1482 29.1789C0.660272 34.1664 1.38129 39.1981 3.25022 43.8478C5.11915 48.4976 8.08098 52.6286 11.8849 55.891C15.6888 59.1535 20.2228 61.4513 25.1031 62.5899" stroke="white" stroke-width="2" stroke-miterlimit="10"></path><path d="M87.6226 13C91.243 13.8353 94.5542 15.6748 97.1761 18.3073C99.798 20.9399 101.624 24.2586 102.445 27.8822C103.265 31.5059 103.047 35.2876 101.815 38.7928C100.583 42.2981 98.3878 45.3848 95.4806 47.6983C92.5733 50.0119 89.0724 51.4584 85.3801 51.8718C81.6877 52.2852 77.9536 51.6487 74.6067 50.0354C71.2598 48.422 68.4359 45.8973 66.4593 42.7513C64.4827 39.6052 63.4337 35.9654 63.4326 32.25" stroke="white" stroke-width="2" stroke-miterlimit="10"></path><path d="M57.623 50.1899C60.5374 54.3195 64.4117 57.6789 68.9124 59.979C73.4131 62.2791 78.4054 63.451 83.4594 63.3937C88.5135 63.3365 93.4779 62.0518 97.9254 59.6503C102.373 57.2488 106.17 53.8025 108.99 49.608C111.81 45.4134 113.569 40.5964 114.114 35.5715C114.659 30.5467 113.975 25.4645 112.121 20.7626C110.267 16.0607 107.297 11.8799 103.469 8.58005C99.6403 5.28023 95.0671 2.9603 90.143 1.81995" stroke="white" stroke-width="2" stroke-miterlimit="10"></path><path d="M27.7529 51.45C24.1321 50.6147 20.8205 48.7748 18.1985 46.1418C15.5764 43.5088 13.7504 40.1896 12.9301 36.5654C12.1098 32.9412 12.3286 29.1591 13.5613 25.6536C14.794 22.1482 16.9907 19.0616 19.8988 16.7486C22.807 14.4355 26.3087 12.9898 30.0016 12.5775C33.6946 12.1652 37.4289 12.8031 40.7755 14.4179C44.1222 16.0327 46.9454 18.5589 48.9208 21.7061C50.8963 24.8534 51.9437 28.4942 51.9429 32.21" stroke="white" stroke-width="2" stroke-miterlimit="10"></path><path d="M57.5027 12C54.6359 15.6991 52.6275 19.9893 51.6227 24.56C50.1008 20.5972 47.3947 17.1996 43.8727 14.83C41.5335 13.3164 38.9428 12.2327 36.2227 11.63L41.5226 1C41.5226 1 48.6726 3.32 53.6526 8C53.6526 8 57.2827 11.43 57.5027 12.07" fill="url(#paint0_linear_1_853)"></path><path d="M57.5027 12C54.6359 15.6991 52.6275 19.9893 51.6227 24.56C50.1008 20.5972 47.3947 17.1996 43.8727 14.83C41.5335 13.3164 38.9428 12.2327 36.2227 11.63L41.5226 1C41.5226 1 48.6726 3.32 53.6526 8C53.6526 8 57.2827 11.43 57.5027 12.07" fill="url(#paint1_linear_1_853)"></path><path d="M57.5027 12C54.6359 15.6991 52.6275 19.9893 51.6227 24.56C50.1008 20.5972 47.3947 17.1996 43.8727 14.83C41.5335 13.3164 38.9428 12.2327 36.2227 11.63L41.5226 1C41.5226 1 48.6726 3.32 53.6526 8C53.6526 8 57.2827 11.43 57.5027 12.07" fill="url(#paint2_linear_1_853)"></path><defs><linearGradient id="paint0_linear_1_853" x1="59.9127" y1="20.6" x2="34.2727" y2="4.36" gradientUnits="userSpaceOnUse"><stop offset="0.35"></stop><stop offset="0.58" stop-opacity="0"></stop></linearGradient><linearGradient id="paint1_linear_1_853" x1="59.9127" y1="20.6" x2="34.2727" y2="4.36" gradientUnits="userSpaceOnUse"><stop offset="0.35"></stop><stop offset="0.58" stop-opacity="0"></stop></linearGradient><linearGradient id="paint2_linear_1_853" x1="59.9127" y1="20.6" x2="34.2727" y2="4.36" gradientUnits="userSpaceOnUse"><stop offset="0.35"></stop><stop offset="0.58" stop-opacity="0"></stop></linearGradient></defs></svg> 