<?xml version="1.0" encoding="UTF-8"?> <svg xmlns="http://www.w3.org/2000/svg" width="115" height="106" viewBox="0 0 115 106" fill="none"><path d="M98.9199 42.8C98.9179 51.0649 96.4653 59.1435 91.8721 66.0146C87.279 72.8856 80.7516 78.2403 73.1153 81.4018C65.479 84.5632 57.0767 85.3894 48.9709 83.7758C40.8651 82.1622 33.4198 78.1813 27.5763 72.3365C21.7329 66.4916 17.7538 59.0453 16.1421 50.9391C14.5305 42.833 15.3586 34.4309 18.5219 26.7954C21.6852 19.1598 27.0415 12.6337 33.9136 8.04219C40.7857 3.45069 48.865 1 57.1299 1C62.6186 1 68.0537 2.08126 73.1245 4.18203C78.1954 6.2828 82.8027 9.36192 86.6834 13.2435C90.5641 17.1252 93.6421 21.7332 95.7417 26.8046C97.8412 31.8759 98.9212 37.3112 98.9199 42.8V42.8Z" stroke="white" stroke-width="2" stroke-miterlimit="10"></path><path d="M16.39 42.8H14.28C14.2484 33.1076 17.5415 23.6976 23.61 16.14L26.8 15.6C21.06 23.06 16.39 33.49 16.39 42.8Z" fill="url(#paint0_linear_1_879)"></path><path d="M97.8702 42.8C97.8735 52.8814 94.1387 62.606 87.388 70.0936C80.6373 77.5811 71.3502 82.2997 61.3223 83.3371C51.2944 84.3745 41.238 81.6569 33.0975 75.7098C24.957 69.7628 19.3107 61.0086 17.2502 51.14C16.7643 52.5121 16.3995 53.9242 16.1602 55.36C19.1736 65.1671 25.6058 73.5675 34.2876 79.0344C42.9694 84.5012 53.3245 86.6716 63.4709 85.1511C73.6172 83.6305 82.8812 78.5199 89.5791 70.7482C96.2769 62.9766 99.964 53.0596 99.9702 42.8" fill="url(#paint1_linear_1_879)"></path><path d="M16.1602 55.36C16.3995 53.9242 16.7643 52.5121 17.2502 51.14L16.1602 55.36Z" fill="url(#paint2_linear_1_879)"></path><path d="M57.1303 104.43C80.2103 104.43 98.9203 85.72 98.9203 62.64C98.9203 39.56 80.2103 20.85 57.1303 20.85C34.0504 20.85 15.3403 39.56 15.3403 62.64C15.3403 85.72 34.0504 104.43 57.1303 104.43Z" stroke="white" stroke-width="2" stroke-miterlimit="10"></path><path d="M113.26 53.14C113.252 62.1064 110.357 70.8319 105.004 78.0251C99.651 85.2183 92.1245 90.4971 83.5382 93.0803C74.952 95.6635 65.7622 95.4138 57.3289 92.3681C48.8956 89.3225 41.6669 83.6427 36.7125 76.1694C31.7581 68.6961 29.3413 59.8263 29.8198 50.8727C30.2982 41.9191 33.6465 33.3573 39.369 26.4545C45.0916 19.5518 52.8845 14.6747 61.5943 12.5451C70.3041 10.4155 79.4682 11.1465 87.7302 14.63C95.3132 17.8101 101.785 23.1646 106.328 30.0181C110.872 36.8716 113.284 44.9172 113.26 53.14V53.14Z" stroke="white" stroke-width="2" stroke-miterlimit="10"></path><path d="M42.79 94.93C65.87 94.93 84.58 76.22 84.58 53.14C84.58 30.06 65.87 11.35 42.79 11.35C19.71 11.35 1 30.06 1 53.14C1 76.22 19.71 94.93 42.79 94.93Z" stroke="white" stroke-width="2" stroke-miterlimit="10"></path><path d="M87.1203 15.52L87.3203 15.6L87.5003 15.68L87.0503 15.19C87.0703 15.3 87.0903 15.41 87.1203 15.52Z" fill="url(#paint3_linear_1_879)"></path><path d="M88.77 13.94C89.9257 15.2076 91.0043 16.5433 92 17.94C98.1529 21.5239 103.257 26.6605 106.802 32.836C110.347 39.0115 112.208 46.0094 112.2 53.13H114.31C114.316 44.8237 111.904 36.6951 107.369 29.7361C102.834 22.7771 96.3715 17.2885 88.77 13.94Z" fill="url(#paint4_linear_1_879)"></path><path d="M56.7602 12.88L57.4902 14.88C67.172 11.3613 77.8249 11.6256 87.3202 15.62V15.54C86.2347 14.3428 85.0794 13.2108 83.8602 12.15C74.9682 9.47538 65.4509 9.73838 56.7202 12.9L56.7602 12.88Z" fill="url(#paint5_linear_1_879)"></path><path d="M99.9701 83.72C94.2297 89.0742 87.0986 92.7051 79.392 94.1976C71.6854 95.6901 63.7144 94.984 56.3901 92.16" stroke="white" stroke-width="2" stroke-miterlimit="10"></path><path d="M56.7699 91.15L56.6499 91.45L57.1099 91.28L56.7699 91.15Z" fill="url(#paint6_linear_1_879)"></path><path d="M99.2501 82.93C94.0987 87.7317 87.7916 91.1176 80.9431 92.7579C74.0945 94.3982 66.9379 94.237 60.1701 92.29C59.1701 92.74 58.1701 93.15 57.1201 93.52C64.5105 96.1521 72.4817 96.7047 80.1647 95.1177C87.8476 93.5307 94.9474 89.8649 100.69 84.52L99.2501 82.93Z" fill="url(#paint7_linear_1_879)"></path><path d="M42.79 94.93C65.87 94.93 84.58 76.22 84.58 53.14C84.58 30.06 65.87 11.35 42.79 11.35C19.71 11.35 1 30.06 1 53.14C1 76.22 19.71 94.93 42.79 94.93Z" stroke="white" stroke-width="2" stroke-miterlimit="10"></path><defs><linearGradient id="paint0_linear_1_879" x1="28.54" y1="14.78" x2="16.93" y2="34.19" gradientUnits="userSpaceOnUse"><stop offset="0.45"></stop><stop offset="1" stop-color="white"></stop></linearGradient><linearGradient id="paint1_linear_1_879" x1="58.7302" y1="51.07" x2="66.0402" y2="65.58" gradientUnits="userSpaceOnUse"><stop></stop><stop offset="0.65" stop-color="white"></stop></linearGradient><linearGradient id="paint2_linear_1_879" x1="16.4802" y1="52.81" x2="16.9302" y2="53.7" gradientUnits="userSpaceOnUse"><stop offset="0.18"></stop><stop offset="1" stop-opacity="0"></stop></linearGradient><linearGradient id="paint3_linear_1_879" x1="87.1803" y1="15.4" x2="87.4003" y2="15.51" gradientUnits="userSpaceOnUse"><stop offset="0.11"></stop><stop offset="0.47" stop-color="#F6F6F6"></stop><stop offset="1" stop-color="white"></stop></linearGradient><linearGradient id="paint4_linear_1_879" x1="79.2" y1="17.36" x2="145.7" y2="65.98" gradientUnits="userSpaceOnUse"><stop offset="0.21"></stop><stop offset="0.48" stop-color="#F6F6F6"></stop><stop offset="1" stop-color="white"></stop></linearGradient><linearGradient id="paint5_linear_1_879" x1="12240.1" y1="122.258" x2="10976.9" y2="1520.6" gradientUnits="userSpaceOnUse"><stop offset="0.11"></stop><stop offset="0.47" stop-color="#F6F6F6"></stop><stop offset="1" stop-color="white"></stop></linearGradient><linearGradient id="paint6_linear_1_879" x1="56.6499" y1="91.3" x2="57.1099" y2="91.3" gradientUnits="userSpaceOnUse"><stop offset="0.11"></stop><stop offset="0.31" stop-color="#F6F6F6"></stop><stop offset="1" stop-color="white"></stop></linearGradient><linearGradient id="paint7_linear_1_879" x1="15590.3" y1="1413.04" x2="17488.6" y2="1413.04" gradientUnits="userSpaceOnUse"><stop offset="0.11"></stop><stop offset="0.31" stop-color="#F6F6F6"></stop><stop offset="1" stop-color="white"></stop></linearGradient></defs></svg> 